<svg width="23" height="22" viewBox="0 0 23 22" fill="none" xmlns="http://www.w3.org/2000/svg">
    <path fill-rule="evenodd" clip-rule="evenodd" d="M14.5509 6.02842C13.4076 6.02842 12.3104 6.56063 11.5942 7.40165C10.878 6.56063 9.78071 6.02842 8.63745 6.02842C6.61374 6.02842 5.02368 7.61848 5.02368 9.64219C5.02368 12.1258 7.25765 14.1495 10.6414 17.2245L11.5942 18.0853L12.5469 17.218C15.9307 14.1495 18.1647 12.1258 18.1647 9.64219C18.1647 7.61848 16.5746 6.02842 14.5509 6.02842ZM11.6599 16.2455L11.5942 16.3112L11.5285 16.2455C8.40091 13.4136 6.33777 11.5411 6.33777 9.64218C6.33777 8.32808 7.32335 7.34251 8.63744 7.34251C9.6493 7.34251 10.6349 7.99299 10.9831 8.89315H12.2118C12.5535 7.99299 13.539 7.34251 14.5509 7.34251C15.865 7.34251 16.8506 8.32808 16.8506 9.64218C16.8506 11.5411 14.7874 13.4136 11.6599 16.2455Z" fill="#9B9B9B"/>
</svg>
